# Blender v2.78 (sub 0) OBJ File: 'Chim lac.blend'
# www.blender.org
mtllib Chim lac.mtl
o Cylinder
v 0.000000 -0.459680 -7.595391
v -0.000000 0.947134 -6.693570
v 5.370752 -0.459680 -5.370752
v 4.733068 0.947134 -4.733068
v 7.595391 -0.459680 0.000000
v 6.693570 0.947134 0.000000
v 5.370752 -0.459680 5.370752
v 4.733068 0.947134 4.733068
v -0.000001 -0.459680 7.595391
v -0.000001 0.947134 6.693570
v -5.370753 -0.459680 5.370751
v -4.733069 0.947134 4.733068
v -7.595391 -0.459680 -0.000000
v -6.693570 0.947134 -0.000000
v -5.370753 -0.459680 -5.370752
v -4.733069 0.947134 -4.733068
v 2.307428 1.410902 -0.302581
v 2.527647 0.946635 -0.442609
v 2.059347 0.946635 -0.173557
v 3.241013 1.105040 1.254932
v 3.333438 0.946635 1.426866
v 2.059347 0.946635 -0.173557
v 1.596386 0.946635 -0.438272
v 1.818751 1.410902 -0.295912
v 0.929653 1.117016 0.997988
v 0.797116 0.946635 1.194131
v 2.033906 4.336550 -1.251908
v 2.282507 19.178560 -0.949176
v 3.643711 15.413504 4.659203
v 3.816812 11.717642 3.395972
v 3.790580 17.094280 1.394622
v 3.515281 12.301952 -3.297180
v 3.457688 16.489628 -3.801560
v 1.640314 26.870083 -0.324732
v 1.643259 25.676414 0.922205
v 2.088789 21.033697 4.225212
v 2.624321 15.221703 -6.267052
v 0.449907 17.401062 -12.319421
v 0.469796 19.196070 -11.434223
v 0.830891 15.543076 -10.342988
v 0.830891 17.632996 -9.520443
v 1.804679 25.516073 3.842584
v 1.799689 23.086208 3.349455
v 2.263286 10.465210 -4.484633
v 1.697127 13.133009 -8.490033
v 2.389940 11.630232 5.207948
v 4.051966 10.267258 -0.024791
v 2.227055 18.098845 -4.226917
v 3.789159 17.327549 -0.936746
v 2.681227 19.231997 2.652903
v 4.755796 14.710781 2.694916
v 1.697127 16.431576 -7.312274
v 5.266448 14.277910 -0.759866
v 4.997669 14.587055 -3.729028
v 4.524954 16.721485 -1.015855
v 4.787330 11.054575 -0.196424
v 4.478296 16.202068 -3.813700
v 4.514042 12.669607 -3.388237
v 3.798007 15.085924 -6.642019
v 0.691201 27.793812 3.010860
v 2.369658 9.268604 -1.676883
v 2.737658 4.336550 -0.560797
v 2.414776 9.405458 1.375472
v 1.021284 8.201603 -0.174808
v 2.052779 4.336550 0.024968
v 1.469847 4.336550 -0.490723
v 2.046441 0.946635 -1.046650
v 2.527647 0.946635 -0.442609
v 2.059347 0.946635 -0.173557
v 1.596386 0.946635 -0.438272
v 1.725389 26.823952 2.246428
v 2.711947 19.063692 4.363104
v 2.788481 16.971903 7.553973
v 1.643162 27.920179 0.731325
v 2.281058 20.691168 7.022507
v 1.645927 24.512514 2.239886
v 1.889255 23.702162 5.392040
v -2.307428 1.410902 -0.302581
v -2.527647 0.946635 -0.442609
v -2.059347 0.946635 -0.173557
v -3.241013 1.105040 1.254932
v -3.333438 0.946635 1.426866
v -2.059347 0.946635 -0.173557
v -1.596386 0.946635 -0.438272
v -1.818751 1.410902 -0.295912
v -0.929653 1.117016 0.997988
v -0.797116 0.946635 1.194131
v 0.000000 27.792355 -0.351652
v 0.000000 7.898003 -0.135597
v 0.000000 20.133680 -0.949176
v 0.000000 9.520685 -4.562956
v 0.000000 18.729549 -4.224461
v -2.033906 4.336550 -1.251908
v -2.282507 19.178560 -0.949176
v -3.643711 15.413504 4.659203
v 0.000000 10.770876 5.952449
v 0.000000 19.834322 2.788790
v -3.816812 11.717642 3.395972
v -3.790580 17.094280 1.394622
v -3.515281 12.301952 -3.297180
v -3.457688 16.489628 -3.801560
v 0.000000 15.636667 9.463207
v 0.000000 28.891100 1.339493
v 0.000000 26.271404 -1.006085
v -1.640314 26.870083 -0.324732
v 0.000000 21.148153 2.728690
v 0.000000 29.555267 3.755055
v 0.000000 20.594948 8.838090
v 0.000000 25.007389 -0.088655
v -1.643259 25.676414 0.922205
v -2.088789 21.033697 4.225212
v 0.000000 12.546421 -8.841918
v 0.000000 16.825363 -7.305839
v -2.624321 15.221703 -6.267052
v 0.000000 17.122023 -12.924413
v 0.000000 19.941374 -11.650316
v -0.449907 17.401062 -12.319421
v -0.469796 19.196070 -11.434223
v -0.830891 15.543076 -10.342988
v 0.000000 15.212523 -10.970783
v -0.830891 17.632996 -9.520443
v 0.000000 18.310255 -9.654597
v 0.000000 23.841566 1.135493
v 0.000000 22.727238 1.987810
v -1.804679 25.516073 3.842584
v 0.000000 24.553488 7.021464
v 0.000000 26.850264 5.037099
v -1.799689 23.086208 3.349455
v -2.263286 10.465210 -4.484633
v -1.697127 13.133009 -8.490033
v -2.389940 11.630232 5.207948
v -4.051966 10.267258 -0.024791
v -2.227055 18.098845 -4.226917
v -3.789159 17.327549 -0.936746
v -2.681227 19.231997 2.652903
v -4.755796 14.710781 2.694916
v -1.697127 16.431576 -7.312274
v -5.266448 14.277910 -0.759866
v -4.997669 14.587055 -3.729028
v -4.524954 16.721485 -1.015855
v -4.787330 11.054575 -0.196424
v -4.478296 16.202068 -3.813700
v -4.514042 12.669607 -3.388237
v -3.798007 15.085924 -6.642019
v -0.691201 27.793812 3.010860
v 0.000000 27.827200 3.754930
v 0.000000 28.388601 2.654814
v -2.369658 9.268604 -1.676883
v -2.737658 4.336550 -0.560797
v -2.414776 9.405458 1.375472
v -1.021284 8.201603 -0.174808
v -2.052779 4.336550 0.024968
v -1.469847 4.336550 -0.490723
v -2.046441 0.946635 -1.046650
v -2.527647 0.946635 -0.442609
v -2.059347 0.946635 -0.173557
v -1.596386 0.946635 -0.438272
v -1.725389 26.823952 2.246428
v -2.711947 19.063692 4.363104
v -2.788481 16.971903 7.553973
v -1.643162 27.920179 0.731325
v -2.281058 20.691168 7.022507
v -1.645927 24.512514 2.239886
v -1.889255 23.702162 5.392040
vt 0.4962 0.4946
vt 0.4378 0.4946
vt 0.3966 0.4533
vt 0.3966 0.3950
vt 0.4378 0.3538
vt 0.4962 0.3538
vt 0.5374 0.3950
vt 0.5374 0.4533
vt 0.6322 0.3476
vt 0.6165 0.1751
vt 0.6744 0.1685
vt 0.6979 0.3401
vt 0.7320 0.1593
vt 0.7633 0.3297
vt 0.2367 0.3297
vt 0.2680 0.1593
vt 0.3256 0.1685
vt 0.3021 0.3401
vt 0.3835 0.1751
vt 0.3678 0.3476
vt 0.4417 0.1791
vt 0.4338 0.3521
vt 0.5000 0.1804
vt 0.5000 0.3536
vt 0.5583 0.1791
vt 0.5662 0.3521
vt 0.3497 0.3538
vt 0.3965 0.4005
vt 0.3965 0.4667
vt 0.3497 0.5135
vt 0.2835 0.5135
vt 0.2367 0.4667
vt 0.2367 0.4005
vt 0.2835 0.3538
vt 0.6416 0.5142
vt 0.5763 0.5001
vt 0.5835 0.4963
vt 0.6436 0.4966
vt 0.6414 0.4794
vt 0.5763 0.4924
vt 0.6360 0.4626
vt 0.7532 0.6155
vt 0.6954 0.6022
vt 0.7041 0.5984
vt 0.7563 0.5983
vt 0.7483 0.6322
vt 0.6954 0.5946
vt 0.7546 0.5808
vt 0.6578 0.4860
vt 0.7696 0.6096
vt 0.5342 0.3418
vt 0.6481 0.2687
vt 0.5977 0.3885
vt 0.5265 0.2185
vt 0.4035 0.2075
vt 0.4022 0.1805
vt 0.4873 0.3062
vt 0.4079 0.3450
vt 0.4597 0.2889
vt 0.4860 0.2373
vt 0.3048 0.2128
vt 0.2852 0.1852
vt 0.3596 0.4982
vt 0.4171 0.5780
vt 0.3014 0.5297
vt 0.2054 0.1713
vt 0.1432 0.3020
vt 0.0581 0.2791
vt 0.3187 0.1142
vt 0.4092 0.1114
vt 0.4665 0.4316
vt 0.5246 0.4938
vt 0.0372 0.4858
vt 0.2288 0.4052
vt 0.1615 0.4927
vt 0.4662 0.8864
vt 0.4155 0.8597
vt 0.4427 0.8392
vt 0.4152 0.6237
vt 0.3499 0.6985
vt 0.3177 0.6151
vt 0.4540 0.7270
vt 0.4189 0.8012
vt 0.3849 0.7551
vt 0.5704 0.7633
vt 0.6218 0.7213
vt 0.6218 0.7532
vt 0.1097 0.6461
vt 0.4039 0.9164
vt 0.2089 0.6135
vt 0.1967 0.7727
vt 0.7215 0.2099
vt 0.7643 0.1657
vt 0.7909 0.1729
vt 0.6629 0.0890
vt 0.7379 0.1149
vt 0.6522 0.1229
vt 0.5591 0.0622
vt 0.5509 0.1170
vt 0.5959 0.2316
vt 0.6891 0.1917
vt 0.4323 0.6824
vt 0.2686 0.8493
vt 0.2739 0.7197
vt 0.3268 0.7845
vt 0.4833 0.7800
vt 0.3451 0.8734
vt 0.8248 0.3681
vt 0.7974 0.3825
vt 0.7480 0.2797
vt 0.7632 0.2717
vt 0.2121 0.2792
vt 0.4221 0.3695
vt 0.3553 0.4037
vt 0.2815 0.3473
vt 0.4316 0.2563
vt 0.3617 0.2870
vt 0.5904 0.7105
vt 0.9287 0.5411
vt 0.8573 0.5463
vt 0.4029 0.0392
vt 0.2608 0.0392
vt 0.9784 0.3978
vt 0.9609 0.4688
vt 0.8515 0.3474
vt 0.8742 0.3256
vt 0.7884 0.5169
vt 0.7718 0.3899
vt 0.7836 0.2582
vt 0.7560 0.2562
vt 0.7656 0.2423
vt 0.8023 0.2423
vt 0.7325 0.2865
vt 0.7470 0.0920
vt 0.3754 0.8301
vt 0.4947 0.8347
vt 0.1576 0.0725
vt 0.1888 0.0910
vt 0.3127 0.8840
vt 0.3568 0.9050
vt 0.2651 0.0710
vt 0.6416 0.5142
vt 0.6436 0.4966
vt 0.5835 0.4963
vt 0.5763 0.5001
vt 0.6414 0.4794
vt 0.6360 0.4626
vt 0.5763 0.4924
vt 0.7532 0.6155
vt 0.7563 0.5983
vt 0.7041 0.5984
vt 0.6954 0.6022
vt 0.7483 0.6322
vt 0.7546 0.5808
vt 0.6954 0.5946
vt 0.6578 0.4860
vt 0.7696 0.6096
vt 0.5342 0.3418
vt 0.5265 0.2185
vt 0.4022 0.1805
vt 0.4035 0.2075
vt 0.4873 0.3062
vt 0.4597 0.2889
vt 0.4079 0.3450
vt 0.4860 0.2373
vt 0.2852 0.1852
vt 0.3048 0.2128
vt 0.3596 0.4982
vt 0.3014 0.5297
vt 0.2054 0.1713
vt 0.1432 0.3020
vt 0.4092 0.1114
vt 0.3187 0.1142
vt 0.4665 0.4316
vt 0.2288 0.4052
vt 0.1615 0.4927
vt 0.4427 0.8392
vt 0.4155 0.8597
vt 0.3177 0.6151
vt 0.3499 0.6985
vt 0.3849 0.7551
vt 0.4189 0.8012
vt 0.6218 0.7213
vt 0.2089 0.6135
vt 0.7643 0.1657
vt 0.6522 0.1229
vt 0.7379 0.1149
vt 0.5509 0.1170
vt 0.5959 0.2316
vt 0.6891 0.1917
vt 0.3268 0.7845
vt 0.2739 0.7197
vt 0.3451 0.8734
vt 0.8248 0.3681
vt 0.7632 0.2717
vt 0.7480 0.2797
vt 0.7974 0.3825
vt 0.2121 0.2792
vt 0.4221 0.3695
vt 0.3553 0.4037
vt 0.2815 0.3473
vt 0.4316 0.2563
vt 0.3617 0.2870
vt 0.9287 0.5411
vt 0.8573 0.5463
vt 0.9784 0.3978
vt 0.8742 0.3256
vt 0.8515 0.3474
vt 0.9609 0.4688
vt 0.7718 0.3899
vt 0.7884 0.5169
vt 0.7836 0.2582
vt 0.7656 0.2423
vt 0.7560 0.2562
vt 0.8023 0.2423
vt 0.7325 0.2865
vt 0.3754 0.8301
vt 0.1888 0.0910
vt 0.2651 0.0710
vn 0.0000 1.0000 -0.0000
vn 0.3293 0.5096 -0.7949
vn 0.7949 0.5096 -0.3293
vn 0.7949 0.5096 0.3293
vn 0.3293 0.5096 0.7949
vn -0.3293 0.5096 0.7949
vn -0.7949 0.5096 0.3293
vn -0.7949 0.5096 -0.3293
vn -0.3293 0.5096 -0.7949
vn 0.0000 -1.0000 0.0000
vn -0.7150 0.4410 0.5425
vn 0.8319 0.3979 -0.3867
vn -0.8056 0.4146 -0.4232
vn 0.6838 0.4169 0.5988
vn -0.4980 0.0252 -0.8668
vn 0.4962 0.0284 -0.8678
vn 0.2337 0.8271 -0.5111
vn 0.1825 -0.6732 -0.7166
vn 0.2648 0.9473 -0.1803
vn -0.0392 0.8939 -0.4465
vn 0.5773 -0.6476 -0.4973
vn 0.2227 0.9706 0.0915
vn 0.4236 -0.7822 0.4568
vn 0.8666 -0.4464 -0.2231
vn 0.3590 0.8578 -0.3678
vn 0.3850 0.9200 0.0737
vn 0.4202 -0.5310 0.7359
vn 0.9559 0.2557 0.1447
vn 0.3793 0.6556 -0.6529
vn 0.5529 -0.2599 -0.7917
vn 0.6000 -0.5990 -0.5303
vn 0.8892 -0.2380 0.3908
vn 0.5215 0.1057 -0.8467
vn 0.6945 0.4937 -0.5235
vn 0.5266 0.1063 0.8434
vn 0.2819 0.8045 -0.5227
vn 0.5766 0.3408 0.7425
vn 0.6839 0.5649 0.4617
vn 0.6407 -0.4939 -0.5878
vn 0.3724 -0.7473 -0.5504
vn 0.3371 -0.4947 -0.8010
vn 0.8321 0.1865 -0.5223
vn 0.5162 0.7239 0.4577
vn 0.6153 -0.4789 -0.6261
vn 0.7026 0.4808 0.5245
vn 0.5841 -0.5856 -0.5620
vn 0.7043 0.5206 0.4827
vn 0.9557 -0.1641 -0.2444
vn 0.5953 -0.0274 0.8031
vn 0.6470 -0.6850 0.3349
vn 0.7580 0.6156 -0.2156
vn 0.8570 0.5050 -0.1024
vn 0.8217 0.4908 0.2896
vn 0.7782 -0.1702 0.6046
vn 0.9471 0.1080 -0.3023
vn 0.7521 0.4472 -0.4842
vn 0.8662 -0.2907 -0.4065
vn 0.9583 -0.2620 -0.1140
vn 0.9570 0.2844 -0.0570
vn 0.9073 0.4124 0.0824
vn 0.9801 -0.1178 0.1596
vn 0.9049 0.2739 -0.3258
vn 0.6388 0.7656 0.0762
vn 0.7276 -0.6121 0.3096
vn 0.7327 -0.0000 0.6806
vn 0.5629 0.7783 0.2782
vn 0.6801 -0.2234 0.6982
vn 0.3041 -0.8944 -0.3278
vn -0.7596 -0.0178 -0.6502
vn 0.7184 -0.1021 -0.6881
vn -0.6726 -0.1420 0.7262
vn -0.8030 -0.0391 -0.5946
vn -0.5978 -0.0290 0.8011
vn 0.7367 -0.0536 -0.6741
vn 0.9886 0.0578 -0.1393
vn 0.6859 0.3157 -0.6557
vn 0.9964 -0.0340 -0.0774
vn 0.9869 0.1448 0.0713
vn 0.9936 0.0205 -0.1113
vn 0.9935 0.0989 -0.0562
vn 0.9983 -0.0049 -0.0577
vn 0.2309 0.3846 -0.8938
vn 0.1950 0.8485 -0.4920
vn -0.2642 -0.8012 -0.5369
vn 0.5900 0.7540 -0.2888
vn 0.2433 0.8808 -0.4061
vn 0.2713 -0.8492 -0.4529
vn 0.2852 -0.8668 0.4090
vn 0.2729 -0.8631 0.4249
vn 0.7368 -0.5133 -0.4400
vn 0.2591 0.9161 -0.3061
vn 0.2172 0.9754 -0.0385
vn 0.6375 -0.3492 0.6868
vn 0.9688 0.2479 0.0070
vn 0.6099 -0.3366 -0.7174
vn 0.5838 -0.5879 -0.5599
vn 0.5807 -0.0372 -0.8133
vn 0.6061 0.1930 0.7717
vn 0.6946 0.4104 0.5909
vn 0.5028 0.7135 0.4879
vn 0.8104 -0.4189 -0.4095
vn 0.3393 -0.7681 -0.5431
vn 0.6426 -0.4781 -0.5987
vn 0.2083 0.8911 0.4031
vn 0.5935 -0.4533 -0.6650
vn 0.6877 0.4746 0.5494
vn 0.4823 -0.5146 -0.7090
vn 0.5684 0.6544 0.4986
vn 0.7665 0.5149 0.3838
vn 0.8331 -0.2484 -0.4942
vn 0.5705 -0.7087 0.4151
vn 0.7997 0.5450 -0.2519
vn 0.7738 0.6303 0.0626
vn 0.9128 0.3450 0.2187
vn 0.8393 -0.1402 0.5253
vn 0.9447 0.1201 -0.3052
vn 0.8648 0.3643 -0.3454
vn 0.9698 -0.1741 -0.1711
vn 0.9506 0.3019 -0.0719
vn 0.9232 0.3047 0.2341
vn 0.9299 -0.2232 0.2924
vn 0.5270 0.7939 0.3033
vn 0.7653 0.5405 0.3496
vn 0.2463 -0.8807 -0.4045
vn 0.3679 -0.8503 -0.3763
vn 0.9888 0.0548 -0.1391
vn 0.7314 0.2808 -0.6214
vn 0.9989 -0.0342 -0.0323
vn 0.9536 0.2996 -0.0289
vn 0.9989 0.0073 -0.0460
vn 0.9913 0.1073 -0.0758
vn 1.0000 -0.0002 -0.0025
vn 0.7150 0.4410 0.5425
vn -0.8319 0.3979 -0.3867
vn 0.8056 0.4146 -0.4232
vn -0.6838 0.4169 0.5988
vn 0.4980 0.0252 -0.8668
vn -0.4962 0.0284 -0.8678
vn -0.2337 0.8271 -0.5111
vn -0.1825 -0.6732 -0.7166
vn -0.2648 0.9473 -0.1803
vn 0.0392 0.8939 -0.4465
vn -0.5773 -0.6476 -0.4973
vn -0.2227 0.9706 0.0915
vn -0.4236 -0.7822 0.4568
vn -0.8666 -0.4464 -0.2231
vn -0.3590 0.8578 -0.3678
vn -0.3850 0.9200 0.0737
vn -0.4202 -0.5310 0.7359
vn -0.9559 0.2557 0.1447
vn -0.3793 0.6556 -0.6529
vn -0.5529 -0.2599 -0.7917
vn -0.6000 -0.5990 -0.5303
vn -0.8892 -0.2380 0.3908
vn -0.5215 0.1057 -0.8467
vn -0.6945 0.4937 -0.5235
vn -0.5266 0.1063 0.8434
vn -0.2819 0.8045 -0.5227
vn -0.5766 0.3408 0.7425
vn -0.6839 0.5649 0.4617
vn -0.6407 -0.4939 -0.5878
vn -0.3724 -0.7473 -0.5504
vn -0.3371 -0.4947 -0.8010
vn -0.8321 0.1865 -0.5223
vn -0.5162 0.7239 0.4577
vn -0.6153 -0.4789 -0.6261
vn -0.7026 0.4808 0.5245
vn -0.5841 -0.5856 -0.5620
vn -0.7043 0.5206 0.4827
vn -0.9557 -0.1641 -0.2444
vn -0.5953 -0.0274 0.8031
vn -0.6470 -0.6850 0.3349
vn -0.7580 0.6156 -0.2156
vn -0.8570 0.5050 -0.1024
vn -0.8217 0.4908 0.2896
vn -0.7782 -0.1702 0.6046
vn -0.9471 0.1080 -0.3023
vn -0.7521 0.4472 -0.4842
vn -0.8662 -0.2907 -0.4065
vn -0.9583 -0.2620 -0.1140
vn -0.9570 0.2844 -0.0570
vn -0.9073 0.4124 0.0824
vn -0.9801 -0.1178 0.1596
vn -0.9049 0.2739 -0.3258
vn -0.6388 0.7656 0.0762
vn -0.7276 -0.6121 0.3096
vn -0.7327 -0.0000 0.6806
vn -0.5629 0.7783 0.2782
vn -0.6801 -0.2234 0.6982
vn -0.3041 -0.8944 -0.3278
vn 0.7596 -0.0178 -0.6502
vn -0.7184 -0.1021 -0.6881
vn 0.6726 -0.1420 0.7262
vn 0.8030 -0.0391 -0.5946
vn 0.5978 -0.0290 0.8011
vn -0.7367 -0.0536 -0.6741
vn -0.9886 0.0578 -0.1393
vn -0.6859 0.3157 -0.6557
vn -0.9964 -0.0340 -0.0774
vn -0.9869 0.1448 0.0713
vn -0.9936 0.0205 -0.1113
vn -0.9935 0.0989 -0.0562
vn -0.9983 -0.0049 -0.0577
vn -0.2309 0.3846 -0.8938
vn -0.1950 0.8485 -0.4920
vn 0.2642 -0.8012 -0.5369
vn -0.5900 0.7540 -0.2888
vn -0.2433 0.8808 -0.4061
vn -0.2713 -0.8492 -0.4529
vn -0.2852 -0.8668 0.4090
vn -0.2729 -0.8631 0.4249
vn -0.7368 -0.5133 -0.4400
vn -0.2591 0.9161 -0.3061
vn -0.2172 0.9754 -0.0385
vn -0.6375 -0.3492 0.6868
vn -0.9688 0.2479 0.0070
vn -0.6099 -0.3366 -0.7174
vn -0.5838 -0.5879 -0.5599
vn -0.5807 -0.0372 -0.8133
vn -0.6061 0.1930 0.7717
vn -0.6946 0.4104 0.5909
vn -0.5028 0.7135 0.4879
vn -0.8104 -0.4189 -0.4095
vn -0.3393 -0.7681 -0.5431
vn -0.6426 -0.4781 -0.5987
vn -0.2083 0.8911 0.4031
vn -0.5935 -0.4533 -0.6650
vn -0.6877 0.4746 0.5494
vn -0.4823 -0.5146 -0.7090
vn -0.5684 0.6544 0.4986
vn -0.7665 0.5149 0.3838
vn -0.8331 -0.2484 -0.4942
vn -0.5705 -0.7087 0.4151
vn -0.7997 0.5450 -0.2519
vn -0.7738 0.6303 0.0626
vn -0.9128 0.3450 0.2187
vn -0.8393 -0.1402 0.5253
vn -0.9447 0.1201 -0.3052
vn -0.8648 0.3643 -0.3454
vn -0.9698 -0.1741 -0.1711
vn -0.9506 0.3019 -0.0719
vn -0.9232 0.3047 0.2341
vn -0.9299 -0.2232 0.2924
vn -0.5270 0.7939 0.3033
vn -0.7653 0.5405 0.3496
vn -0.2463 -0.8807 -0.4045
vn -0.3679 -0.8503 -0.3763
vn -0.9888 0.0548 -0.1391
vn -0.7314 0.2808 -0.6214
vn -0.9989 -0.0342 -0.0323
vn -0.9536 0.2996 -0.0289
vn -0.9989 0.0073 -0.0460
vn -0.9913 0.1073 -0.0758
vn -1.0000 -0.0002 -0.0025
usemtl Material.008
s off
f 4/1/1 2/2/1 16/3/1 14/4/1 12/5/1 10/6/1 8/7/1 6/8/1
usemtl Material.009
f 1/9/2 2/10/2 4/11/2 3/12/2
f 3/12/3 4/11/3 6/13/3 5/14/3
f 5/15/4 6/16/4 8/17/4 7/18/4
f 7/18/5 8/17/5 10/19/5 9/20/5
f 9/20/6 10/19/6 12/21/6 11/22/6
f 11/22/7 12/21/7 14/23/7 13/24/7
f 13/24/8 14/23/8 16/25/8 15/26/8
f 15/26/9 16/25/9 2/10/9 1/9/9
f 1/27/10 3/28/10 5/29/10 7/30/10 9/31/10 11/32/10 13/33/10 15/34/10
usemtl Material.010
f 19/35/11 21/36/11 20/37/11 17/38/11
f 18/39/10 21/40/10 19/41/10
f 17/38/12 20/37/12 21/40/12 18/39/12
f 23/42/13 26/43/13 25/44/13 24/45/13
f 22/46/10 26/43/10 23/42/10
f 24/45/14 25/44/14 26/47/14 22/48/14
f 17/38/15 18/39/15 19/49/15
f 22/50/16 23/42/16 24/45/16
f 48/51/17 113/52/17 92/53/17
f 37/54/18 58/55/18 32/56/18
f 33/57/19 55/58/19 57/59/19
f 33/57/20 59/60/20 37/54/20
f 32/56/21 56/61/21 47/62/21
f 50/63/22 97/64/22 72/65/22
f 63/66/23 46/67/23 96/68/23
f 32/56/24 61/69/24 44/70/24
f 28/71/25 92/53/25 90/72/25
f 97/64/26 28/71/26 90/72/26
f 46/67/27 102/73/27 96/68/27
f 29/74/28 72/65/28 73/75/28
f 88/76/29 74/77/29 34/78/29
f 106/79/30 43/80/30 36/81/30
f 123/82/31 35/83/31 76/84/31
f 46/67/32 29/74/32 73/75/32
f 97/64/33 36/81/33 72/65/33
f 107/85/34 60/86/34 147/87/34
f 73/75/35 108/88/35 102/73/35
f 88/76/36 103/89/36 74/77/36
f 75/90/37 126/91/37 108/88/37
f 122/92/38 39/93/38 116/94/38
f 120/95/39 38/96/39 40/97/39
f 44/70/40 112/98/40 45/99/40
f 112/98/41 40/97/41 45/99/41
f 52/100/42 37/54/42 45/99/42
f 113/52/43 41/101/43 122/92/43
f 76/84/44 124/102/44 123/82/44
f 127/103/45 77/104/45 42/105/45
f 109/106/46 34/78/46 35/83/46
f 42/105/47 60/107/47 127/103/47
f 37/54/48 44/70/48 45/99/48
f 62/108/49 65/109/49 69/110/49 68/111/49
f 30/112/50 63/66/50 47/62/50
f 49/113/51 48/51/51 28/71/51
f 31/114/52 28/71/52 50/63/52
f 31/114/53 29/74/53 51/115/53
f 30/112/54 29/74/54 46/67/54
f 40/97/55 52/100/55 45/99/55
f 37/54/56 48/51/56 33/57/56
f 54/116/57 58/55/57 59/60/57
f 53/117/58 58/55/58 54/116/58
f 54/116/59 55/58/59 53/117/59
f 53/117/60 31/114/60 51/115/60
f 51/115/61 56/61/61 53/117/61
f 57/59/62 54/116/62 59/60/62
f 49/113/63 31/114/63 55/58/63
f 30/112/64 47/62/64 56/61/64
f 146/118/65 60/86/65 107/85/65
f 60/107/66 74/77/66 103/89/66
f 47/119/67 63/120/67 65/109/67 62/108/67
f 91/121/68 61/69/68 89/122/68
f 64/123/69 61/124/69 27/125/69 66/126/69
f 61/124/70 47/119/70 62/108/70 27/125/70
f 63/120/71 64/127/71 66/128/71 65/109/71
f 67/129/10 68/111/10 69/130/10 70/131/10
f 66/126/72 27/125/72 67/129/72 70/132/72
f 65/109/73 66/128/73 70/133/73 69/110/73
f 27/125/74 62/108/74 68/111/74 67/129/74
f 41/101/75 38/96/75 39/93/75
f 115/134/76 39/93/76 38/96/76
f 76/84/77 71/135/77 42/105/77
f 72/65/78 75/90/78 73/75/78
f 42/105/79 43/80/79 76/84/79
f 36/81/80 77/104/80 75/90/80
f 35/83/81 74/77/81 71/135/81
f 34/78/82 104/136/82 88/76/82
f 48/51/83 52/100/83 113/52/83
f 37/54/84 59/60/84 58/55/84
f 33/57/85 49/113/85 55/58/85
f 33/57/86 57/59/86 59/60/86
f 32/56/87 58/55/87 56/61/87
f 96/68/88 89/137/88 63/66/88
f 64/138/89 63/66/89 89/137/89
f 32/56/90 47/62/90 61/69/90
f 28/71/91 48/51/91 92/53/91
f 97/64/92 50/63/92 28/71/92
f 46/67/93 73/75/93 102/73/93
f 29/74/94 50/63/94 72/65/94
f 106/79/95 124/102/95 43/80/95
f 123/82/96 109/106/96 35/83/96
f 97/64/97 106/79/97 36/81/97
f 73/75/98 75/90/98 108/88/98
f 75/90/99 77/104/99 126/91/99
f 122/92/100 41/101/100 39/93/100
f 120/95/101 115/134/101 38/96/101
f 44/70/102 91/121/102 112/98/102
f 112/98/103 120/95/103 40/97/103
f 113/52/104 52/100/104 41/101/104
f 76/84/105 43/80/105 124/102/105
f 127/103/106 126/91/106 77/104/106
f 109/106/107 104/136/107 34/78/107
f 146/139/108 127/103/108 60/107/108
f 42/105/109 71/135/109 60/107/109
f 37/54/110 32/56/110 44/70/110
f 30/112/111 46/67/111 63/66/111
f 49/113/112 33/57/112 48/51/112
f 31/114/113 49/113/113 28/71/113
f 31/114/114 50/63/114 29/74/114
f 30/112/115 51/115/115 29/74/115
f 40/97/116 41/101/116 52/100/116
f 37/54/117 52/100/117 48/51/117
f 53/117/118 56/61/118 58/55/118
f 54/116/119 57/59/119 55/58/119
f 53/117/120 55/58/120 31/114/120
f 51/115/121 30/112/121 56/61/121
f 103/89/122 147/140/122 60/107/122
f 60/107/123 71/135/123 74/77/123
f 64/141/124 89/122/124 61/69/124
f 91/121/125 44/70/125 61/69/125
f 41/101/126 40/97/126 38/96/126
f 115/134/127 116/94/127 39/93/127
f 76/84/128 35/83/128 71/135/128
f 72/65/129 36/81/129 75/90/129
f 42/105/130 77/104/130 43/80/130
f 36/81/131 43/80/131 77/104/131
f 35/83/132 34/78/132 74/77/132
f 80/142/133 78/143/133 81/144/133 82/145/133
f 79/146/10 80/147/10 82/148/10
f 78/143/134 79/146/134 82/148/134 81/144/134
f 84/149/135 85/150/135 86/151/135 87/152/135
f 83/153/10 84/149/10 87/152/10
f 85/150/136 83/154/136 87/155/136 86/151/136
f 78/143/137 80/156/137 79/146/137
f 83/157/138 85/150/138 84/149/138
f 133/158/139 92/53/139 113/52/139
f 114/159/140 100/160/140 143/161/140
f 101/162/141 142/163/141 140/164/141
f 101/162/142 114/159/142 144/165/142
f 100/160/143 132/166/143 141/167/143
f 135/168/144 159/169/144 97/64/144
f 150/170/145 96/68/145 131/171/145
f 100/160/146 129/172/146 148/173/146
f 94/174/147 90/72/147 92/53/147
f 97/64/148 90/72/148 94/174/148
f 131/171/149 96/68/149 102/73/149
f 95/175/150 160/176/150 159/169/150
f 88/76/151 105/177/151 161/178/151
f 106/79/152 111/179/152 128/180/152
f 123/82/153 163/181/153 110/182/153
f 131/171/154 160/176/154 95/175/154
f 97/64/155 159/169/155 111/179/155
f 107/85/156 147/87/156 145/183/156
f 160/176/157 102/73/157 108/88/157
f 88/76/158 161/178/158 103/89/158
f 162/184/159 108/88/159 126/91/159
f 122/92/160 116/94/160 118/185/160
f 120/95/161 119/186/161 117/187/161
f 129/172/162 130/188/162 112/98/162
f 112/98/163 130/188/163 119/186/163
f 137/189/164 130/188/164 114/159/164
f 113/52/165 122/92/165 121/190/165
f 163/181/166 123/82/166 124/102/166
f 127/103/167 125/191/167 164/192/167
f 109/106/168 110/182/168 105/177/168
f 125/191/169 127/103/169 145/193/169
f 114/159/170 130/188/170 129/172/170
f 149/194/171 155/195/171 156/196/171 152/197/171
f 98/198/172 132/166/172 150/170/172
f 134/199/173 94/174/173 133/158/173
f 99/200/174 135/168/174 94/174/174
f 99/200/175 136/201/175 95/175/175
f 98/198/176 131/171/176 95/175/176
f 119/186/177 130/188/177 137/189/177
f 114/159/178 101/162/178 133/158/178
f 139/202/179 144/165/179 143/161/179
f 138/203/180 139/202/180 143/161/180
f 139/202/181 138/203/181 140/164/181
f 138/203/182 136/201/182 99/200/182
f 136/201/183 138/203/183 141/167/183
f 142/163/184 144/165/184 139/202/184
f 134/199/185 140/164/185 99/200/185
f 98/198/186 141/167/186 132/166/186
f 146/118/187 107/85/187 145/183/187
f 145/193/188 103/89/188 161/178/188
f 132/204/189 149/194/189 152/197/189 150/205/189
f 91/121/190 89/122/190 148/173/190
f 151/206/191 153/207/191 93/208/191 148/209/191
f 148/209/192 93/208/192 149/194/192 132/204/192
f 150/205/193 152/197/193 153/210/193 151/211/193
f 154/212/10 157/213/10 156/214/10 155/195/10
f 153/207/194 157/215/194 154/212/194 93/208/194
f 152/197/195 156/196/195 157/216/195 153/210/195
f 93/208/196 154/212/196 155/195/196 149/194/196
f 121/190/197 118/185/197 117/187/197
f 115/134/198 117/187/198 118/185/198
f 163/181/199 125/191/199 158/217/199
f 159/169/200 160/176/200 162/184/200
f 125/191/201 163/181/201 128/180/201
f 111/179/202 162/184/202 164/192/202
f 110/182/203 158/217/203 161/178/203
f 105/177/204 88/76/204 104/136/204
f 133/158/205 113/52/205 137/189/205
f 114/159/206 143/161/206 144/165/206
f 101/162/207 140/164/207 134/199/207
f 101/162/208 144/165/208 142/163/208
f 100/160/209 141/167/209 143/161/209
f 96/68/210 150/170/210 89/137/210
f 151/218/211 89/137/211 150/170/211
f 100/160/212 148/173/212 132/166/212
f 94/174/213 92/53/213 133/158/213
f 97/64/214 94/174/214 135/168/214
f 131/171/215 102/73/215 160/176/215
f 95/175/216 159/169/216 135/168/216
f 106/79/217 128/180/217 124/102/217
f 123/82/218 110/182/218 109/106/218
f 97/64/219 111/179/219 106/79/219
f 160/176/220 108/88/220 162/184/220
f 162/184/221 126/91/221 164/192/221
f 122/92/222 118/185/222 121/190/222
f 120/95/223 117/187/223 115/134/223
f 129/172/224 112/98/224 91/121/224
f 112/98/225 119/186/225 120/95/225
f 113/52/226 121/190/226 137/189/226
f 163/181/227 124/102/227 128/180/227
f 127/103/228 164/192/228 126/91/228
f 109/106/229 105/177/229 104/136/229
f 146/139/230 145/193/230 127/103/230
f 125/191/231 145/193/231 158/217/231
f 114/159/232 129/172/232 100/160/232
f 98/198/233 150/170/233 131/171/233
f 134/199/234 133/158/234 101/162/234
f 99/200/235 94/174/235 134/199/235
f 99/200/236 95/175/236 135/168/236
f 98/198/237 95/175/237 136/201/237
f 119/186/238 137/189/238 121/190/238
f 114/159/239 133/158/239 137/189/239
f 138/203/240 143/161/240 141/167/240
f 139/202/241 140/164/241 142/163/241
f 138/203/242 99/200/242 140/164/242
f 136/201/243 141/167/243 98/198/243
f 103/89/244 145/193/244 147/140/244
f 145/193/245 161/178/245 158/217/245
f 151/219/246 148/173/246 89/122/246
f 91/121/247 148/173/247 129/172/247
f 121/190/248 117/187/248 119/186/248
f 115/134/249 118/185/249 116/94/249
f 163/181/250 158/217/250 110/182/250
f 159/169/251 162/184/251 111/179/251
f 125/191/252 128/180/252 164/192/252
f 111/179/253 164/192/253 128/180/253
f 110/182/254 161/178/254 105/177/254
